# xmcd CD database file
#
# Track frame offsets:
#	150
#	14291
#	26236
#	38459
#	55935
#	66228
#	82896
#	110086
#	124984
#	141082
#	163262
#	184674
#	209615
#	237767
#
# Disc length: 3484 seconds
#
# Revision: 0
# Processed by: cddbd v1.4PL0 Copyright (c) Steve Scherf et al.
# Submitted via: CDex 1.50beta8
#
DISCID=c40d9a0e
DTITLE=V.Sobolenko&E.Petrova - The Northern Tango
DYEAR=2002
DGENRE=Jazz
TTITLE0=TACONEANDO
TTITLE1=COPACABANA
TTITLE2=EL PILLIN
TTITLE3=JEANNE Y PAUL
TTITLE4=EL PENULTIMO
TTITLE5=LIBERTANGO
TTITLE6=MILONGA SIN PALABRAS
TTITLE7=ESQUALO
TTITLE8=ADIOS NONINO
TTITLE9=THE ARGENTINA VARIANT OR HUNT FOR SHARKES
TTITLE10=WHITE NIGHT MILONGA
TTITLE11=SURGICAL TANGO
TTITLE12=TRISTEZA OF 21-ST CENTURY
TTITLE13=BLACK SNOW
EXTD=YEAR: 2002
EXTT0=
EXTT1=
EXTT2=
EXTT3=
EXTT4=
EXTT5=
EXTT6=
EXTT7=
EXTT8=
EXTT9=
EXTT10=
EXTT11=
EXTT12=
EXTT13=
PLAYORDER=
